
		<svg xmlns="http://www.w3.org/2000/svg" xmlns:xlink="http://www.w3.org/1999/xlink" version="1.1" width="3119.7604790419164" height="1610.7784431137725">
			
			<g transform="scale(5.9880239520958085) translate(10, 10)">
				<defs id="SvgjsDefs1009"/><g id="SvgjsG1010" transform="translate(126, 0) scale(2.307461805555555)" feature="container" rel="mainfill" name="outline_container" xmlns:name="outlineContainer_mainfill" fill="#000"><g xmlns="http://www.w3.org/2000/svg" fill=""><path d="M4.6 5.1h98.3V29.2c.1 2.9.1 6 .2 8.1s.1 1 .1.8a61.5 61.5 0 0 0 .3-6.7v-4.2c.1-6.7 0-13.5 0-20.2V4.3H4.6V.8h102.3V24.9c.1 2.9.1 6 .2 8.1s.1 1 .1.8a61.5 61.5 0 0 0 .3-6.7v-4.2c.1-6.7 0-13.5 0-20.2V0H4v4.5H0V51.6c.1 2.7.1 5.8 0 8.7v47.6h43.5l16.7-.2h10.9a64.7 64.7 0 0 0 8.1-.3H.7v-2.8-1.5-5.7V73.1 60.2 49.9 47 36.7C.6 31.5.6 26.3.6 21V5.1H4V47.2c-.1 2.7-.1 5.8-.1 8.8v47.6h43.6l16.7-.2h10.9a64.7 64.7 0 0 0 8.1-.3H4.7v-2.8-1.5-5.7V88v-1.7-17.4V56 45.7v-2.9-10.3-15.8c0-5.3-.1-7.7-.1-11.6zM107.6 58.3v-4.7l-.2-7.8c-.1-3.2-.2-3.8-.3-3.8 0 1.9-.1 3.9-.1 5.9v17.3c0 3.1 0 6.3-.1 9.2v15.7c0 3.3 0 6.3.1 9.3v3.9l-1.9-.2h-1.7q.1-2.4.1-5.2V95 79.6v-1.4-4.6c0-3.5.1-6.9.1-10.8v-4.7l-.2-7.8c-.1-3.2-.2-3.8-.3-3.8 0 1.9-.1 3.9-.1 5.9v17.3c0 3.1 0 6.3-.1 9.2v15.7c0 3.3 0 5.8.1 8.5H92.4c-.4.1-1.3.1-.9.1l3.5.2h8v4.2l-1.9-.2H88.4c-.4.1-1.3.1-.9.1l3.5.2h12.1c.1.3.1.1.2-1.2s.1-2 .1-3h3.7c.1.3.1.1.2-1.2s.1-5.3.2-8.7v-2.9-15.4-1.4-4.6c.1-3.8.2-7.2.1-11z"/></g></g><g id="main_text" rel="mainfill" name="main_text" feature="main_text" xmlns:name="mainText_mainfill" groupName="main_text" fill="#000" transform="translate(-2.5600006103515627, 99.60800094604492) scale(1.6)"><path d="M12.42 24 l-10.82 0 l0 -15.98 l3.16 0 l0 12.98 l7.66 0 l0 3 z M35.1234375 16 q0 1.72 -0.67 3.24 t-1.83 2.64 t-2.7 1.77 t-3.28 0.65 t-3.29 -0.65 t-2.71 -1.77 t-1.83 -2.63 t-0.67 -3.25 t0.67 -3.26 t1.83 -2.64 t2.71 -1.76 t3.29 -0.64 t3.28 0.64 t2.7 1.77 t1.83 2.64 t0.67 3.25 z M32.003437500000004 16 q0 -1.1 -0.42 -2.07 t-1.15 -1.7 t-1.71 -1.16 t-2.08 -0.43 q-1.12 0 -2.1 0.43 t-1.71 1.16 t-1.15 1.7 t-0.42 2.07 q0 1.08 0.42 2.06 t1.15 1.71 t1.71 1.16 t2.1 0.43 q1.1 0 2.08 -0.43 t1.71 -1.16 t1.15 -1.71 t0.42 -2.06 z M56.686875 21.12 q-1.2 1.46 -2.91 2.32 t-3.77 0.86 q-1.78 0 -3.34 -0.65 t-2.72 -1.77 t-1.83 -2.63 t-0.67 -3.25 t0.67 -3.25 t1.83 -2.64 t2.72 -1.77 t3.34 -0.64 q2.06 0 3.77 0.86 t2.85 2.24 l-2.14 2.2 q-0.74 -1.06 -1.91 -1.71 t-2.57 -0.65 q-1.12 0 -2.11 0.43 t-1.73 1.16 t-1.17 1.7 t-0.43 2.07 q0 1.08 0.43 2.05 t1.17 1.7 t1.73 1.16 t2.11 0.43 q1.48 0 2.62 -0.67 t1.9 -1.77 z M78.95031250000001 24 l-3.4 0 l-1.48 -3.2 l-7.76 0 l-1.5 3.2 l-3.4 0 l7.56 -16 l2.42 0 z M72.8503125 18.22 l-2.66 -5.76 l-2.7 5.76 l5.36 0 z M96.05375000000001 10.78 l-4.42 0 l0 13.22 l-3.14 0 l0 -13.22 l-4.42 0 l0 -2.76 l11.98 0 l0 2.76 z M105.67718750000002 24 l-3.1 0 l0 -15.98 l3.1 0 l0 15.98 z M129.580625 16 q0 1.72 -0.67 3.24 t-1.83 2.64 t-2.7 1.77 t-3.28 0.65 t-3.29 -0.65 t-2.71 -1.77 t-1.83 -2.63 t-0.67 -3.25 t0.67 -3.26 t1.83 -2.64 t2.71 -1.76 t3.29 -0.64 t3.28 0.64 t2.7 1.77 t1.83 2.64 t0.67 3.25 z M126.46062500000001 16 q0 -1.1 -0.42 -2.07 t-1.15 -1.7 t-1.71 -1.16 t-2.08 -0.43 q-1.12 0 -2.1 0.43 t-1.71 1.16 t-1.15 1.7 t-0.42 2.07 q0 1.08 0.42 2.06 t1.15 1.71 t1.71 1.16 t2.1 0.43 q1.1 0 2.08 -0.43 t1.71 -1.16 t1.15 -1.71 t0.42 -2.06 z M149.80406250000001 24 l-3.04 0 l-7.22 -11.22 l0 11.22 l-3.04 0 l0 -16 l3.48 0 l6.78 10.44 l0 -10.44 l3.04 0 l0 16 z  M184.41093750000005 16 q0 1.42 -0.45 2.69 t-1.29 2.33 l1.6 1.58 l-1.84 1.84 l-1.64 -1.66 q-1.02 0.7 -2.24 1.1 t-2.58 0.4 q-1.74 0 -3.27 -0.65 t-2.68 -1.78 t-1.81 -2.63 t-0.66 -3.22 t0.66 -3.23 t1.81 -2.64 t2.68 -1.78 t3.27 -0.65 t3.28 0.65 t2.69 1.78 t1.81 2.64 t0.66 3.23 z M181.39093750000004 16 q0 -1.1 -0.43 -2.08 t-1.16 -1.72 t-1.72 -1.17 t-2.11 -0.43 t-2.1 0.43 t-1.72 1.17 t-1.16 1.72 t-0.42 2.08 t0.42 2.08 t1.16 1.71 t1.72 1.16 t2.1 0.43 q0.76 0 1.45 -0.2 t1.31 -0.56 l-1.5 -1.46 l1.84 -1.84 l1.48 1.52 q0.84 -1.3 0.84 -2.84 z M201.17437500000003 24 l-2.88 0 l0 -0.88 q-0.28 0.28 -0.65 0.49 t-0.78 0.36 t-0.84 0.23 t-0.81 0.08 q-0.88 0 -1.69 -0.28 t-1.43 -0.86 t-0.99 -1.5 t-0.37 -2.18 l0 -7.02 l2.88 0 l0 6.88 q0 0.62 0.19 1.09 t0.5 0.78 t0.72 0.46 t0.85 0.15 q1.4 0 2.42 -0.96 l0 -8.4 l2.88 0 l0 11.56 z M217.49781250000004 24 l-2.9 0 l0 -0.62 q-0.76 0.52 -1.61 0.72 t-1.75 0.2 q-0.84 0 -1.52 -0.25 t-1.18 -0.72 t-0.77 -1.11 t-0.27 -1.42 q0 -0.98 0.43 -1.71 t1.17 -1.22 t1.73 -0.73 t2.13 -0.24 l1.66 0 q0 -1.02 -0.66 -1.62 t-1.9 -0.6 q-0.6 0 -1.24 0.22 t-1.28 0.8 l-1.7 -1.72 q0.92 -0.88 2.13 -1.36 t2.49 -0.48 q1.2 0 2.14 0.38 t1.52 0.98 q0.76 0.76 1.07 1.7 t0.31 2.4 l0 6.4 z M214.59781250000003 21.12 l0 -2.14 l-1.32 0 q-0.6 0 -1.13 0.08 t-0.92 0.27 t-0.62 0.49 t-0.23 0.72 q0 0.6 0.47 0.98 t1.21 0.38 q0.64 0 1.27 -0.2 t1.27 -0.58 z M234.74125000000004 24 l-2.88 0 l0 -6.9 q0 -0.62 -0.19 -1.09 t-0.51 -0.78 t-0.73 -0.46 t-0.85 -0.15 q-0.66 0 -1.3 0.23 t-1.16 0.73 l0 8.42 l-2.9 0 l0 -11.56 l2.9 0 l0 0.86 q0.26 -0.26 0.64 -0.48 t0.79 -0.37 t0.84 -0.23 t0.83 -0.08 q0.88 0 1.69 0.28 t1.44 0.86 t1.01 1.5 t0.38 2.18 l0 7.04 z M247.90468750000002 23.74 q-0.44 0.28 -1.02 0.42 t-1.16 0.14 q-1.02 0 -1.72 -0.25 t-1.12 -0.77 t-0.61 -1.32 t-0.19 -1.88 l0 -5.06 l-1.52 0 l0 -1.3 q1.4 -0.58 2.27 -1.72 t1.19 -2.96 l0.94 0 l0 3.38 l2.92 0 l0 2.6 l-2.92 0 l0 5.26 q0 0.44 0.11 0.72 t0.29 0.44 t0.41 0.22 t0.49 0.06 q0.34 0 0.82 -0.12 t0.82 -0.4 l0 2.54 z M257.128125 10.42 l-3 0 l0 -3 l3 0 l0 3 z M257.08812500000005 24 l-2.92 0 l0 -11.58 l2.92 0 l0 11.58 z M270.69156250000003 10.04 q-0.42 -0.16 -0.74 -0.21 t-0.7 -0.05 q-0.84 0 -1.19 0.38 t-0.35 1.38 l0 0.92 l1.82 0 l0 2.52 l-1.82 0 l0 9.02 l-2.86 0 l0 -9.02 l-1.4 0 l0 -2.52 l1.4 0 l0 -0.88 q0 -2.18 0.81 -3.32 t2.85 -1.14 q1.16 0 2.18 0.28 l0 2.64 z M279.115 10.42 l-3 0 l0 -3 l3 0 l0 3 z M279.07500000000005 24 l-2.92 0 l0 -11.58 l2.92 0 l0 11.58 z M298.17843750000003 18.2 q0 0.28 -0.03 0.58 t-0.07 0.62 l-9.24 0 q0.16 0.5 0.45 0.95 t0.71 0.78 t0.95 0.52 t1.17 0.19 q0.78 0 1.56 -0.27 t1.3 -0.73 l1.82 1.82 q-1.2 0.9 -2.35 1.27 t-2.43 0.37 q-1.3 0 -2.43 -0.48 t-1.96 -1.3 t-1.31 -1.93 t-0.48 -2.37 t0.48 -2.37 t1.32 -1.93 t1.96 -1.3 t2.4 -0.48 q1.22 0 2.34 0.45 t1.98 1.25 t1.36 1.91 t0.5 2.45 z M295.15843750000005 17.08 q-0.34 -1.1 -1.21 -1.77 t-1.97 -0.67 q-1.08 0 -1.94 0.67 t-1.2 1.77 l6.32 0 z M315.22187500000007 24 l-2.94 0 l0 -0.6 q-0.56 0.46 -1.22 0.67 t-1.4 0.21 q-1.22 0 -2.24 -0.49 t-1.76 -1.32 t-1.15 -1.93 t-0.41 -2.32 q0 -1.3 0.47 -2.41 t1.25 -1.93 t1.78 -1.29 t2.06 -0.47 q0.74 0 1.44 0.2 t1.2 0.56 l0 -5.48 l2.92 0 l0 16.6 z M312.32187500000003 20.9 l0 -5.56 q-0.2 -0.14 -0.46 -0.27 t-0.54 -0.22 t-0.56 -0.14 t-0.5 -0.05 q-0.72 0 -1.31 0.25 t-1.03 0.72 t-0.68 1.13 t-0.24 1.46 q0 0.78 0.24 1.43 t0.66 1.12 t1.01 0.73 t1.29 0.26 q1.14 0 2.12 -0.86 z"/></g>
			</g>
		</svg>
	